#!OML:ASF Y:\EmotionMaleHayes\Project 1\Capture day 1\Session 1\Male1.ASF
:FULLY-SPECIFIED
:DEGREES
417
root 44.6168 17.3605 -1.51233 -143.041 93.0053 -131.698
lowerback 9.96689 2.88642 -5.9688
upperback -1.04517 3.04559 -1.62567
thorax -6.93403 1.697 1.14902
lowerneck -20.544 0.151749 3.02438
upperneck 18.6891 -0.66235 -0.0504872
head 9.26609 -0.069254 -0.601125
rclavicle 2.5842e-015 3.57812e-014
rhumerus -49.0973 -2.00508 -81.339
rradius 37.5434
rwrist -7.95686
rhand -17.0364 -32.3422
rfingers 7.12502
rthumb 9.20025 -62.1215
lclavicle 2.5842e-015 3.57812e-014
lhumerus -41.1139 -15.4796 89.3388
lradius 54.7233
lwrist 4.92296
lhand -19.4181 -25.7893
lfingers 7.12502
lthumb 6.90155 4.0782
rfemur 14.3223 -0.981704 10.2429
rtibia 9.64659
rfoot -374.982 -4.40814
rtoes 7.25634
lfemur 15.0748 -0.226624 -19.758
ltibia 7.05104
lfoot 348.401 7.65317
ltoes -1.92002
418
root 44.6207 17.3579 -1.50761 -148.454 92.9635 -137.133
lowerback 9.99375 2.89334 -5.74527
upperback -0.959887 3.08813 -1.52728
thorax -6.85358 1.70774 1.12328
lowerneck -20.7579 0.170819 3.09437
upperneck 18.6964 -0.625521 -0.239658
head 9.306 -0.06993 -0.673667
rclavicle 1.36167e-014 -1.27222e-014
rhumerus -48.6795 -2.17126 -81.0564
rradius 38.0032
rwrist -8.24859
rhand -16.5712 -32.7322
rfingers 7.12502
rthumb 9.6491 -62.4912
lclavicle 1.36167e-014 -1.27222e-014
lhumerus -40.7623 -15.3121 89.0851
lradius 54.9674
lwrist 5.05922
lhand -19.5119 -25.8022
lfingers 7.12502
lthumb 6.811 4.06829
rfemur 14.2764 -0.786585 10.6427
rtibia 9.64917
rfoot -375.027 -4.50425
rtoes 7.20419
lfemur 15.0868 -0.128364 -19.3632
ltibia 7.05724
lfoot 348.353 7.60199
ltoes -2.38621
419
root 44.63 17.3577 -1.50412 -146.651 93.1978 -135.393
lowerback 9.85991 2.92748 -5.988
upperback -0.853472 3.1188 -1.57028
thorax -6.67761 1.72696 1.21829
lowerneck -20.8334 0.204851 3.2292
upperneck 18.6214 -0.590775 -0.390001
head 9.29282 -0.0633505 -0.743016
rclavicle -1.3418e-014 -5.56597e-015
rhumerus -48.1889 -2.22463 -80.9601
rradius 38.2365
rwrist -9.13084
rhand -16.9997 -32.3038
rfingers 7.12502
rthumb 9.23566 -62.0816
lclavicle -1.3418e-014 -5.56597e-015
lhumerus -40.4344 -15.2328 88.8171
lradius 55.3097
lwrist 5.29525
lhand -19.4847 -25.4575
lfingers 7.12502
lthumb 6.8373 4.41211
rfemur 14.2382 -0.668898 10.4163
rtibia 9.59698
rfoot -375.052 -4.4835
rtoes 7.02909
lfemur 15.1148 -0.0780193 -19.6141
ltibia 6.94764
lfoot 348.347 7.68579
ltoes -2.94872
420
root 44.6409 17.3603 -1.50149 -139.89 93.6996 -128.765
lowerback 9.75086 2.96332 -6.64264
upperback -0.887999 3.08975 -1.75723
thorax -6.67804 1.73561 1.39343
lowerneck -20.7453 0.22715 3.4519
upperneck 18.6344 -0.594661 -0.522545
head 9.28056 -0.0637728 -0.825701
rclavicle 3.8763e-015 1.74931e-014
rhumerus -47.9402 -2.28438 -80.9094
rradius 38.5228
rwrist -9.98816
rhand -17.3151 -31.8751
rfingers 7.12502
rthumb 8.93126 -61.6661
lclavicle 3.8763e-015 1.74931e-014
lhumerus -40.3033 -15.1728 88.5335
lradius 55.5145
lwrist 5.61403
lhand -19.59 -25.1731
lfingers 7.12502
lthumb 6.73558 4.69975
rfemur 14.095 -0.703422 9.61733
rtibia 9.52195
rfoot -374.867 -4.57956
rtoes 4.98045
lfemur 15.0554 -0.00150491 -20.3896
ltibia 6.86359
lfoot 348.328 7.809
ltoes -2.53914
421
root 44.639 17.3632 -1.49189 -143.945 93.8118 -132.952
lowerback 9.86918 3.00435 -6.62589
upperback -1.01246 3.13142 -1.69434
thorax -6.88461 1.76209 1.43272
lowerneck -20.6136 0.20383 3.32075
upperneck 18.6311 -0.624498 -0.322954
head 9.25681 -0.0633697 -0.738787
rclavicle -1.2921e-015 1.35174e-014
rhumerus -47.8311 -2.45678 -80.6987
rradius 39.0349
rwrist -10.3384
rhand -16.7956 -32.2062
rfingers 7.12502
rthumb 9.4326 -61.9751
lclavicle -1.2921e-015 1.35174e-014
lhumerus -40.2735 -14.9751 88.3067
lradius 55.5932
lwrist 5.7907
lhand -19.7263 -25.0969
lfingers 7.12502
lthumb 6.60402 4.78016
rfemur 13.8491 -0.146385 10.0778
rtibia 9.46763
rfoot -374.753 -5.23703
rtoes 3.2641
lfemur 14.9655 0.0347499 -20.1274
ltibia 6.81877
lfoot 348.266 7.92539
ltoes -2.07392
422
root 44.6564 17.3627 -1.49838 -137.042 94.0886 -126.14
lowerback 9.86956 2.97746 -7.01903
upperback -1.12539 3.03534 -1.86785
thorax -7.01153 1.73325 1.47921
lowerneck -20.4919 0.159135 3.03905
upperneck 18.6869 -0.668744 0.0136963
head 9.25638 -0.0635313 -0.582059
rclavicle -6.16232e-015 -1.98785e-014
rhumerus -47.7794 -2.55129 -80.5347
rradius 39.4406
rwrist -10.7826
rhand -16.1936 -32.7421
rfingers 7.12502
rthumb 10.0134 -62.4838
lclavicle -6.16232e-015 -1.98785e-014
lhumerus -40.3695 -14.8789 88.1723
lradius 55.6752
lwrist 5.89821
lhand -19.7861 -24.8674
lfingers 7.12502
lthumb 6.54633 5.01147
rfemur 13.9468 -0.616952 9.19937
rtibia 9.32582
rfoot -374.638 -4.81233
rtoes 3.1269
lfemur 14.9805 0.0232534 -20.914
ltibia 6.6939
lfoot 348.177 7.86379
ltoes -1.8566
423
root 44.6733 17.3642 -1.50795 -128.283 94.7398 -117.488
lowerback 9.55757 2.95093 -7.79726
upperback -1.0259 2.93561 -2.15368
thorax -6.74727 1.70416 1.64391
lowerneck -20.6588 0.180481 3.19676
upperneck 18.7364 -0.650471 -0.188231
head 9.30214 -0.0667286 -0.675883
rclavicle 6.95746e-016 -1.66979e-014
rhumerus -47.2286 -2.42243 -80.5562
rradius 39.5485
rwrist -11.593
rhand -15.9396 -32.9825
rfingers 7.12502
rthumb 10.2584 -62.7124
lclavicle 6.95746e-016 -1.66979e-014
lhumerus -40.0256 -14.8271 87.9459
lradius 55.5884
lwrist 5.96081
lhand -19.9947 -24.6242
lfingers 7.12502
lthumb 6.34497 5.26081
rfemur 13.9708 -1.22147 7.73838
rtibia 9.27867
rfoot -374.544 -4.20101
rtoes 3.23796
lfemur 14.937 0.0203212 -22.2112
ltibia 6.60027
lfoot 348.14 7.97357
ltoes -1.51852
424
root 44.66 17.3649 -1.49786 -136.906 94.2996 -126.162
lowerback 9.79876 2.94676 -7.1255
upperback -1.05841 2.98989 -1.92767
thorax -6.8983 1.71087 1.48883
lowerneck -20.8727 0.224546 3.51934
upperneck 18.9127 -0.612445 -0.572906
head 9.3998 -0.0678998 -0.858321
rclavicle 8.44835e-015 -1.43125e-014
rhumerus -46.7794 -2.31238 -80.5896
rradius 39.7387
rwrist -12.3112
rhand -15.6839 -33.0837
rfingers 7.12502
rthumb 10.5051 -62.8012
lclavicle 8.44835e-015 -1.43125e-014
lhumerus -39.8418 -14.7562 87.7099
lradius 55.5476
lwrist 5.948
lhand -20.3534 -24.3634
lfingers 7.12502
lthumb 5.99861 5.53167
rfemur 13.7552 -0.391685 9.11468
rtibia 9.3572
rfoot -374.762 -4.87656
rtoes 4.66287
lfemur 14.8761 -0.0419966 -21.1484
ltibia 6.5946
lfoot 348.156 8.21025
ltoes -1.38798
425
root 44.6887 17.3644 -1.5054 -136.818 94.311 -125.972
lowerback 9.62264 2.89725 -7.00509
upperback -0.921654 2.96177 -1.948
thorax -6.64105 1.68436 1.41938
lowerneck -20.6903 0.295967 3.39907
upperneck 18.7469 -0.518941 -0.348179
head 9.31287 -0.00931327 -0.746397
rclavicle -2.96189e-014 7.95139e-016
rhumerus -46.5079 -2.38347 -80.5144
rradius 40.1493
rwrist -12.7774
rhand -15.3506 -33.1575
rfingers 7.12502
rthumb 10.8266 -62.8584
lclavicle -2.96189e-014 7.95139e-016
lhumerus -39.7725 -14.7144 87.5519
lradius 55.5689
lwrist 5.91467
lhand -20.6858 -24.0841
lfingers 7.12502
lthumb 5.67774 5.81979
rfemur 14.0573 -0.650491 8.92388
rtibia 9.29225
rfoot -374.816 -4.41239
rtoes 5.84619
lfemur 15.2488 0.00606744 -21.2686
ltibia 6.32663
lfoot 348.181 8.18803
ltoes -1.74618
426
root 44.6986 17.3708 -1.50143 -140.531 94.336 -129.787
lowerback 9.44203 2.93511 -6.8501
upperback -0.893272 3.05084 -1.86467
thorax -6.51092 1.71974 1.41691
lowerneck -20.8935 0.205272 3.33343
upperneck 18.9168 -0.637051 -0.331952
head 9.40627 -0.064518 -0.747596
rclavicle -1.5207e-014 1.59028e-014
rhumerus -46.299 -2.45475 -80.4067
rradius 40.5807
rwrist -13.1856
rhand -15.2982 -33.0933
rfingers 7.12502
rthumb 10.8771 -62.7916
lclavicle -1.5207e-014 1.59028e-014
lhumerus -39.7282 -14.6544 87.4633
lradius 55.5336
lwrist 5.78616
lhand -20.9366 -23.9954
lfingers 7.12502
lthumb 5.4356 5.91492
rfemur 13.9017 -0.250097 9.33541
rtibia 9.35616
rfoot -374.969 -4.62179
rtoes 6.29479
lfemur 15.2726 0.0517013 -20.9977
ltibia 6.15671
lfoot 348.25 8.31659
ltoes -2.59162
427
root 44.708 17.374 -1.50638 -141.43 94.2485 -130.816
lowerback 9.31401 2.90181 -6.61915
upperback -0.897949 3.0436 -1.85
thorax -6.42997 1.70639 1.31187
lowerneck -20.3376 0.277645 3.47666
upperneck 18.2885 -0.524725 -0.475185
head 9.08963 -0.0293266 -0.801237
rclavicle 4.57205e-015 8.74653e-015
rhumerus -46.0924 -2.51182 -80.3653
rradius 40.9578
rwrist -13.679
rhand -15.4019 -33.1819
rfingers 7.12502
rthumb 10.7771 -62.8854
lclavicle 4.57205e-015 8.74653e-015
lhumerus -39.6934 -14.6076 87.3349
lradius 55.5474
lwrist 5.87923
lhand -20.8397 -23.7711
lfingers 7.12502
lthumb 5.52913 6.13679
rfemur 13.8433 -0.483777 9.36006
rtibia 9.14326
rfoot -374.785 -4.55613
rtoes 5.7112
lfemur 15.2353 0.0814161 -20.9152
ltibia 6.03383
lfoot 348.3 8.23341
ltoes -3.28942
